<svg xmlns="http://www.w3.org/2000/svg" xmlns:xlink="http://www.w3.org/1999/xlink" width="175.611" height="175.611" viewBox="0 0 175.611 175.611">
  <defs>
    <clipPath id="clip-path">
      <rect id="Rectangle_377845" data-name="Rectangle 377845" width="113.039" height="107.75" fill="none"/>
    </clipPath>
  </defs>
  <g id="Group_1071995" data-name="Group 1071995" transform="translate(-0.371 -0.456)">
    <path id="Path_609142" data-name="Path 609142" d="M87.805,0A87.805,87.805,0,1,1,0,87.805,87.805,87.805,0,0,1,87.805,0Z" transform="translate(0.371 0.456)" fill="#0a5e6b"/>
    <path id="Path_839192" data-name="Path 839192" d="M76.632,0A76.632,76.632,0,1,1,0,76.632,76.632,76.632,0,0,1,76.632,0Z" transform="translate(11.544 11.629)" fill="#fff"/>
    <g id="Group_1072397" data-name="Group 1072397" transform="translate(31.371 33.456)">
      <g id="Group_1072396" data-name="Group 1072396" transform="translate(0 0)" clip-path="url(#clip-path)">
        <path id="Path_839164" data-name="Path 839164" d="M61.312,0,3.265,12.584A3.264,3.264,0,0,0,0,15.849V94.326a3.266,3.266,0,0,0,3.265,3.266L61.312,107.75a3.265,3.265,0,0,0,3.265-3.266V3.265A3.264,3.264,0,0,0,61.312,0" transform="translate(0 0.001)" fill="#1464c0"/>
        <path id="Path_839165" data-name="Path 839165" d="M37.338,44.846c.01-.031.021-.064.029-.095l.18-.024c.216.005.431.015.648.015q14.9,0,29.813.007a5.583,5.583,0,0,0,2.266-.495,3.441,3.441,0,0,0,1.839-3.943,3.479,3.479,0,0,0-2.9-2.546,12.135,12.135,0,0,0-2.631-.168q-12.961.008-25.925,0c-1.095,0-2.189.112-3.285.015,0-.2-.01-.4-.01-.593q-.013-2.619-.022-5.237c0-.2-.009-.4-.012-.6.01-.17.033-.332.215-.412.132.005.265.017.4.017q15.183,0,30.366.005a4.307,4.307,0,0,0,1.12-.141,3.359,3.359,0,0,0,2.792-3.466,3.278,3.278,0,0,0-2.8-3.272,9.944,9.944,0,0,0-2.381-.177q-14.534,0-29.069,0a1.056,1.056,0,0,1-.613-.149l.005-12.744c0-.265.014-.529.021-.794a21.323,21.323,0,0,1,2.656-.129c3.055.076,6.115.052,9.174.007.476-.007.948.029,1.423.029,10.739-.009,21.476.005,32.215-.022a4.044,4.044,0,0,1,3.132,2.095,3.246,3.246,0,0,1,.241,1.512q0,34.737,0,69.473a3.263,3.263,0,0,1-1.485,2.771,2.848,2.848,0,0,1-1.6.54c-14.657.2-29.315.017-43.971.088a15.916,15.916,0,0,0-1.784-.1q-.005-5.162-.014-10.328c0-.711-.022-1.421-.036-2.132,0-.366,0-.732,0-1.1.005-.067.012-.134.017-.2.2-.015.4-.043.6-.043q15.108,0,30.219.005c.3,0,.6-.014.9-.041a3.5,3.5,0,0,0,3.048-2.548A3.349,3.349,0,0,0,70.8,66.238a4.215,4.215,0,0,0-2.586-.754q-15.134-.015-30.268-.005c-.167,0-.333.014-.5.021a.088.088,0,0,0-.079-.029l-.041-.192c.077-1.893.064-3.787.014-5.68.009-.3.017-.591.027-.887a12.165,12.165,0,0,1,1.938-.029q14.4-.008,28.811-.009a6.821,6.821,0,0,0,1.091-.088,3.5,3.5,0,0,0,2.237-5.675,4.1,4.1,0,0,0-3.294-1.378q-15.1-.026-30.208-.009c-.165,0-.332.014-.5.021a.088.088,0,0,0-.079-.029l-.041-.2c.077-1.859.062-3.718.015-5.577,0-.2-.005-.4-.007-.6v-.294" transform="translate(26.811 7.126)" fill="#ebeef1"/>
        <path id="Path_839166" data-name="Path 839166" d="M30.938,31.111a.789.789,0,0,0,.162.409q.216.57.433,1.136c.007.048.012.1.019.146a1.182,1.182,0,0,0,.2.6,2.469,2.469,0,0,0,.3.8.786.786,0,0,0,.17.411c.012.112.026.223.04.335h-.064l.065.009-.01.026.026.009c-.046.156.1.151.175.2v0a.637.637,0,0,0,.186.424c.095.261.191.521.287.782a20.831,20.831,0,0,0,.919,2.586c.009.033.015.065.024.1.321.9.643,1.8,1.1,2.794a10.7,10.7,0,0,0,.253-2.993,8.031,8.031,0,0,0,.393-2.093,14.689,14.689,0,0,1,.093-1.694l.031-.694c.022-.033.045-.065.067-.1a7.456,7.456,0,0,0,.132-1.4,1.22,1.22,0,0,0,.084-.8q.157-1.247.314-2.491c.16-.143.084-.328.091-.5a10.745,10.745,0,0,0,.108-1.789c.093-.041.095-.119.079-.2l.031-.457a.414.414,0,0,0,.069-.34c.174-.215-.017-.479.1-.7l.005-.3a3.418,3.418,0,0,0,.215-.9,4.414,4.414,0,0,1,.9-1.393q.348-.263.692-.529l.515-.261c.2-.043.39-.086.584-.131l.048.01.046-.017a1.331,1.331,0,0,0,.3.026,3.282,3.282,0,0,1,2.993,1.3,9.531,9.531,0,0,0,.595,1.1c-.007.1-.015.2-.022.3-.009.01-.026.024-.024.031a.371.371,0,0,0,.038.067l.034-.009a10.166,10.166,0,0,1-.1,1.6v.2c-.052.33.064.677-.1,1l.005.2c0,.064,0,.127,0,.191-.012.18-.026.361-.04.541l-.052.156-.015.2a3.5,3.5,0,0,0-.12.672,9.6,9.6,0,0,1-.153,2.021L43,32.793c-.345.942-.081,1.938-.259,2.9,0,.143-.17.246-.1.407a8.56,8.56,0,0,0-.136,1.29c-.017.094-.034.187-.052.28-.033.12-.091.246.057.333-.206.273-.048.586-.095.875-.046.019-.091.04-.072.1-.014.244-.029.49-.043.735-.019.053-.04.107-.058.16-.029.168-.187.311-.1.5l-.041.887.005-.005a.19.19,0,0,0-.055.208c.012.277-.167.526-.108.808l.005.191L41.9,43.3c-.019.055-.036.11-.055.165,0,.143-.165.244-.1.4a3.632,3.632,0,0,1-.089,1.046,4.837,4.837,0,0,1-.163,1.473,2.842,2.842,0,0,0-.036.67c-.186.72-.093,1.469-.222,2.194-.007.077-.015.155-.024.232-.021.055-.04.108-.058.163-.026.17-.186.313-.1.505v.192c-.005.1-.012.2-.017.3l-.278,2.593c-.005.2-.16.383-.095.6l-.021.2c-.026.069-.12.108-.084.2-.223.883-.036,1.8-.2,2.687-.108.357-.218.717-.328,1.074l-.7,1.215c-.1.064-.2.125-.3.187a7.067,7.067,0,0,1-1.2.612l-.7.222a.084.084,0,0,0-.093.01,3.634,3.634,0,0,1-2.009-.569,1.961,1.961,0,0,1-1.074-1.06c-.053-.122,0-.3-.2-.338a.041.041,0,0,0-.024-.057,4.708,4.708,0,0,0-.687-1.314c0-.029,0-.058,0-.089a1.8,1.8,0,0,0-.287-.792.363.363,0,0,0-.108-.3,3.776,3.776,0,0,0-.321-.9c-.048-.137-.1-.275-.144-.414a.7.7,0,0,0-.132-.383,3.758,3.758,0,0,0-.4-1.11,7.071,7.071,0,0,0-.6-1.485.217.217,0,0,0-.088-.2l-.036-.1c-.024-.041-.046-.082-.07-.124a1.066,1.066,0,0,0-.143-.471c-.022-.043-.046-.088-.07-.131a.1.1,0,0,0-.041-.058.993.993,0,0,0-.17-.509c-.029-.131-.058-.261-.086-.392a.3.3,0,0,0-.143-.285l-.2-.536q-.134-.392-.265-.78c-.033-.1-.067-.2-.1-.3a4.351,4.351,0,0,0-.392-1,3.375,3.375,0,0,0-.407-.995.2.2,0,0,0-.081-.2c-.01-.033-.021-.065-.029-.1-.024-.048-.046-.095-.07-.141a.749.749,0,0,0-.2-.457.379.379,0,0,0-.1-.309.84.84,0,0,0-.187-.486c-.01-.033-.019-.065-.029-.1l-.108-.3c-.062-.165-.122-.332-.184-.5-.074-.232-.146-.464-.22-.7-.1-.306-.2-.613-.306-.919a.065.065,0,0,0-.041-.079,2.564,2.564,0,0,0-.308-.8,1.99,1.99,0,0,0-.342-.892,4.084,4.084,0,0,0-.2-.452c-.107-.184-.2-.1-.282.036-.1.337-.2.674-.3,1.01a.207.207,0,0,0-.084.2.444.444,0,0,0-.12.347c-.022.05-.046.1-.069.148l-.062.186a6.272,6.272,0,0,0-.342,1.113l-.026.095a2.256,2.256,0,0,0-.3.8.381.381,0,0,0-.113.3,9.511,9.511,0,0,0-.593,1.57,1.1,1.1,0,0,0-.189.515.787.787,0,0,0-.206.49c-.074.2-.148.407-.222.612s-.156.406-.235.608l-.041.162a2.181,2.181,0,0,0-.277.735.428.428,0,0,0-.11.3,4.151,4.151,0,0,0-.412,1.091c-.1.074-.1.187-.115.294a7.847,7.847,0,0,0-.581,1.5l-.216.593a1.5,1.5,0,0,0-.247.608c-.057.16-.113.32-.17.481-.076.2-.153.409-.229.615a.758.758,0,0,0-.131.4.385.385,0,0,0-.115.294,2.946,2.946,0,0,0-.3.8,3.523,3.523,0,0,0-.356.9c-.024.06-.048.122-.07.182-.077.206-.153.411-.229.615-.009.034-.015.067-.024.1l-.052.091-.077.2a.677.677,0,0,0-.167.407c-.1.222-.208.443-.313.665l-.077.131-.052.084c-.046.072-.093.144-.141.216A5.564,5.564,0,0,1,17.68,59.71c-.237.1-.474.2-.711.3l-.387.124a.381.381,0,0,0-.308.079l-.589.024a.105.105,0,0,0-.1-.005l-.167-.026a6.014,6.014,0,0,1-1.93-.983,6.847,6.847,0,0,1-.813-1.2q-.131-.43-.265-.863a1.27,1.27,0,0,0-.05-.538l-.057-.144c-.015-.119-.031-.237-.045-.354-.019-.048-.036-.1-.055-.143s-.014-.1-.022-.151c-.046-.435-.091-.871-.137-1.306-.022-.2-.046-.392-.069-.588.014-.082.014-.16-.079-.2a10.447,10.447,0,0,0-.234-1.6l-.052-.162a.485.485,0,0,0-.024-.333,1.411,1.411,0,0,0-.089-.7c.06-.249-.131-.455-.119-.7l-.005-.3c-.019-.074-.038-.148-.057-.223.005-.01.017-.022.015-.029a.4.4,0,0,0-.036-.057c-.069-.43-.136-.857-.2-1.285,0-.141.048-.294-.095-.4-.007-.167-.012-.332-.017-.5a.1.1,0,0,0-.007-.1c-.139-.387.005-.82-.192-1.2a.865.865,0,0,0-.086-.6c-.045-.3-.088-.6-.131-.9a.078.078,0,0,0-.014-.088,9.141,9.141,0,0,0-.179-1.6,1.565,1.565,0,0,1-.072-.378c-.086-.641-.2-1.28-.3-1.919l-.01-.393a2.991,2.991,0,0,0-.189-1.1c-.007-.067-.015-.132-.024-.2a6.569,6.569,0,0,0-.194-1.2,3.407,3.407,0,0,0-.2-1.495c-.009-.107-.017-.213-.024-.318l-.077-.383a.421.421,0,0,0-.072-.354L9.2,34.995a2.6,2.6,0,0,0-.194-1.2,5.016,5.016,0,0,0-.089-1.012,2.484,2.484,0,0,1,.247-1.553A3.727,3.727,0,0,1,12,28.993a3.814,3.814,0,0,1,2.766.93l.186.2a7.494,7.494,0,0,1,.723,1.189.421.421,0,0,0,.088.3l.041.194a1.991,1.991,0,0,0,.184.8c.007.033.015.065.024.1a.575.575,0,0,0,.065.438c.012.151.026.3.038.455-.088.249.139.455.1.7.07.435.139.869.21,1.3a.4.4,0,0,0,.055.328l.026.46.005.2c.029.2.06.4.089.6l.015.194c-.07.218.088.4.1.6-.019.065.009.088.072.076.148.065.072.2.093.3a4.208,4.208,0,0,0,.093,1.821q.113.495.229.99c.029.392.058.782.089,1.174.009.093-.015.2.132.216s.136-.084.17-.18c.192-.538.4-1.07.6-1.6a1.986,1.986,0,0,0,.247-.689c.082-.27.163-.54.246-.809q.165-.441.333-.881a4.541,4.541,0,0,0,.361-1.014c.495-.976.773-2.038,1.187-3.046.309-.751.555-1.526.828-2.29a4.16,4.16,0,0,0,.39-1.038,8.863,8.863,0,0,0,.6-1.557A17.632,17.632,0,0,1,23.6,26.982l.567-.558a5.426,5.426,0,0,1,1.191-.54c.259-.1.569.015.806-.18l.048.01.046-.014c.239.01.459.174.708.086.031.015.06.031.091.045.079.149.206.036.308.057.031.014.06.029.091.045.033.108.124.086.2.088.089.16.282.079.4.174l.289.132c.017.052.041.093.108.076.333-.058.34.258.481.419-.064.4.473.316.505.637a.048.048,0,0,0,.027.062c.024.04.05.077.076.115l-.009-.01a.25.25,0,0,0,.108.218.069.069,0,0,0,.024.074,8.508,8.508,0,0,0,.68,1.6.939.939,0,0,0,.186.495,1.111,1.111,0,0,0,.213.5.363.363,0,0,0,.094.294c0,.11,0,.223.1.3" transform="translate(6.381 15.878)" fill="#f9f9fa"/>
        <path id="Path_839167" data-name="Path 839167" d="M37.446,34.153c.165-.007.332-.021.5-.021q15.1,0,30.206.01a4.1,4.1,0,0,1,3.294,1.378,3.494,3.494,0,0,1-2.237,5.674,6.628,6.628,0,0,1-1.091.088q-14.4.008-28.811.01a11.967,11.967,0,0,0-1.938.029l-.033-.021c0-.562.009-1.124.012-1.686V35.328a4.1,4.1,0,0,1,.1-1.175" transform="translate(26.814 24.515)" fill="#1876d2"/>
        <path id="Path_839168" data-name="Path 839168" d="M37.41,26.047c1.1.095,2.191-.017,3.285-.017q12.964.005,25.925,0a12.25,12.25,0,0,1,2.631.167,3.481,3.481,0,0,1,2.9,2.548,3.438,3.438,0,0,1-1.839,3.942,5.528,5.528,0,0,1-2.266.495q-14.907-.013-29.813-.005c-.216,0-.431-.01-.648-.015a2.559,2.559,0,0,1-.2-1.081V27.094c0-.11.015-.227-.1-.3,0-.1,0-.2,0-.3.043-.149.084-.3.127-.448" transform="translate(26.778 18.694)" fill="#1876d2"/>
        <path id="Path_839169" data-name="Path 839169" d="M37.442,42.275c.167-.007.332-.021.5-.021q15.134,0,30.27.007a4.2,4.2,0,0,1,2.584.753A3.349,3.349,0,0,1,72.106,46.7a3.492,3.492,0,0,1-3.048,2.548c-.3.029-.6.043-.9.043q-15.111,0-30.22-.005c-.2,0-.4.028-.6.041l-.005-.7c0-.167,0-.333,0-.5V43.45a4.1,4.1,0,0,1,.1-1.175" transform="translate(26.818 30.348)" fill="#1876d2"/>
        <path id="Path_839170" data-name="Path 839170" d="M37.348,19.093c.005-.406.009-.811.014-1.215a1.05,1.05,0,0,0,.612.148q14.536-.008,29.072,0a9.922,9.922,0,0,1,2.378.177,3.275,3.275,0,0,1,2.8,3.273,3.36,3.36,0,0,1-2.789,3.466,4.4,4.4,0,0,1-1.124.139q-15.181-.008-30.365-.005c-.132,0-.266-.01-.4-.017a2.544,2.544,0,0,1-.2-1.077Z" transform="translate(26.811 12.841)" fill="#1876d2"/>
        <path id="Path_839171" data-name="Path 839171" d="M36.956,22.122l-.034.081c-.027-.012-.069-.017-.076-.038s.019-.052.029-.077c.027.01.053.022.081.034" transform="translate(26.462 15.865)" fill="#1565c0"/>
      </g>
    </g>
  </g>
</svg>
