<svg xmlns="http://www.w3.org/2000/svg" xmlns:xlink="http://www.w3.org/1999/xlink" width="175.611" height="175.611" viewBox="0 0 175.611 175.611">
  <defs>
    <clipPath id="clip-path">
      <rect id="Rectangle_377846" data-name="Rectangle 377846" width="116" height="108.12" fill="none"/>
    </clipPath>
  </defs>
  <g id="Group_1072409" data-name="Group 1072409" transform="translate(-966.47 -3812.827)">
    <g id="Group_1072400" data-name="Group 1072400" transform="translate(966.099 3812.371)">
      <path id="Path_609142" data-name="Path 609142" d="M87.805,0A87.805,87.805,0,1,1,0,87.805,87.805,87.805,0,0,1,87.805,0Z" transform="translate(0.371 0.456)" fill="#0a5e6b"/>
      <path id="Path_839192" data-name="Path 839192" d="M76.632,0A76.632,76.632,0,1,1,0,76.632,76.632,76.632,0,0,1,76.632,0Z" transform="translate(11.544 11.629)" fill="#fff"/>
    </g>
    <g id="Group_1072399" data-name="Group 1072399" transform="translate(996.275 3846.573)">
      <g id="Group_1072398" data-name="Group 1072398" transform="translate(0 0)" clip-path="url(#clip-path)">
        <path id="Path_839172" data-name="Path 839172" d="M63.075.242c.13.071.258.144.389.217a4.015,4.015,0,0,1,1.777,3.772c-.021.5.012,1,.021,1.5V6.969c0,.068,0,.137,0,.207s0,.137,0,.207,0,.137,0,.207,0,.139,0,.207l0,.207c0,.07,0,.139,0,.209s0,.137,0,.207,0,.137,0,.207,0,.137,0,.207,0,.137,0,.207,0,.139,0,.207,0,.139,0,.209,0,.137,0,.207,0,.137,0,.207,0,.137,0,.207,0,.137,0,.207,0,.139,0,.207,0,.139,0,.207,0,.139,0,.209,0,.137,0,.207,0,.137,0,.207,0,.137,0,.207,0,.137,0,.207,0,.139,0,.207,0,.139,0,.207,0,.139,0,.209v.414c0,.414,0,.827,0,1.242,0,.171,0,.344,0,.517-.007.274-.02.549-.021.823q-.005,6.679-.009,13.361l-.029.039.073.043-.005-.007c-.007,1.565-.027,3.128-.016,4.691a12.222,12.222,0,0,0,.1,2.565.1.1,0,0,1-.078.023c-.157.07-.151.173-.061.3.009.241.023.479.023.72q.013,3.051.023,6.1c.039,2.453-.125,4.905.093,7.354a.092.092,0,0,1-.078.025c-.059.009-.093.03-.05.093,0,.223.012.446.012.668q.008,3.136.014,6.272c.016.479-.021.959-.011,1.438.03,1.654.032,3.31-.005,4.964-.007.362.314.665.119,1.03-.091.048-.1.134-.1.219q0,3.42-.007,6.841,0,3.679.007,7.361-.005,6.229-.012,12.463c0,.567.005,1.135.009,1.7,0,2.916,0,5.83-.014,8.744a20.782,20.782,0,0,1-.084,2.684,3.555,3.555,0,0,1-1.809,2.656,3.06,3.06,0,0,1-1.633.424,17.685,17.685,0,0,1-3.41-.4c-1.257-.212-2.511-.437-3.757-.69a20.734,20.734,0,0,1-2.887-.59,18.478,18.478,0,0,0-2.522-.421c-1.128-.232-2.287-.307-3.4-.624-.6-.171-1.223-.169-1.825-.3-1.321-.282-2.633-.635-3.968-.815-1.228-.164-2.422-.487-3.645-.674-1.453-.223-2.912-.453-4.351-.791-1.166-.274-2.363-.406-3.543-.626-.92-.169-1.847-.332-2.748-.553-1.053-.26-2.126-.373-3.18-.6-1.26-.266-2.533-.463-3.8-.7-1-.187-1.994-.424-3.012-.538-.761-.087-1.508-.3-2.267-.428-1.064-.175-2.105-.471-3.178-.61-.768-.1-1.51-.371-2.29-.422a24.433,24.433,0,0,1-3.408-.659C3.2,97.406,1.691,97.272.816,95.921a3.9,3.9,0,0,1-.8-2.146Q.013,54.34,0,14.9a3.939,3.939,0,0,1,2.023-3.7,5.581,5.581,0,0,1,2.219-.588C5.518,10.48,6.737,10.1,8,9.889c2.005-.326,4-.7,6-1.068,1.29-.237,2.576-.5,3.862-.75,1.683-.326,3.356-.7,5.048-.959,2.267-.349,4.513-.823,6.773-1.216,1.337-.232,2.679-.5,4.012-.784,2.592-.551,5.208-.982,7.816-1.454,2.683-.485,5.363-.979,8.033-1.52.815-.166,1.645-.258,2.454-.467l1.246-.2a.158.158,0,0,0,.178-.057L56.137.936C57.4.658,58.685.5,59.947.2a5.609,5.609,0,0,1,3.128.039M28.795,53.128l.007.009c.032.037.062.077.093.114.057.23-.135.34-.246.481-1.634,2.1-3.281,4.2-4.914,6.3-.907,1.169-1.879,2.289-2.72,3.51-.036.048-.07.1-.1.144a20.221,20.221,0,0,0-2.346,3.2,3.6,3.6,0,0,0-.078,3.176c1.028,2.449,4.636,2.773,6.333.522,1.795-2.381,3.67-4.7,5.486-7.067,1.112-1.447,2.3-2.839,3.313-4.362.193-.289.33-.255.538-.005,1.032,1.226,2.035,2.478,3.1,3.674q3.548,3.976,7.044,8a3.748,3.748,0,0,0,3.977,1.121A3.612,3.612,0,0,0,50.561,67.5a7.041,7.041,0,0,0-1.483-2.321Q44.014,59.43,38.956,53.684c-.519-.586-.522-.588-.029-1.219.627-.8,1.264-1.593,1.891-2.394,1.542-1.968,3.089-3.932,4.618-5.907,1.29-1.667,2.535-3.369,3.852-5.012a5.069,5.069,0,0,0,1.34-2.5,3.951,3.951,0,0,0-.414-2.31,3.53,3.53,0,0,0-1.453-1.483c-.061-.159-.187-.052-.282-.073a3.734,3.734,0,0,0-2.431-.207,4.941,4.941,0,0,0-2.458,1.982q-3.561,4.585-7.133,9.162c-.036.032-.073.064-.109.1l-2.838,3.709c-.524-.617-1.028-1.223-1.547-1.818q-2.449-2.8-4.907-5.591a21.861,21.861,0,0,0-3.31-3.4,3.392,3.392,0,0,0-3.488-.291,3.663,3.663,0,0,0-1.353,5.522c.287.383.633.724.952,1.084q1.866,2.1,3.734,4.21c.037.045.077.089.116.134,1.62,1.925,3.306,3.788,4.994,5.652l.091.1" transform="translate(0 0.001)" fill="#2d7d32"/>
        <path id="Path_839173" data-name="Path 839173" d="M36.632,36.893q-.008-3.051-.023-6.1c0-.241-.014-.481-.023-.722.021-.1.043-.2.062-.3a.094.094,0,0,0,.08-.023q5.072.008,10.144.02A5.572,5.572,0,0,0,48.7,29.46a3.509,3.509,0,0,0,1.342-5.787,4.631,4.631,0,0,0-3.411-1.2c-2.158-.043-4.315-.025-6.472-.02-1.171,0-2.34.03-3.511.046l.007.005a.076.076,0,0,0-.046-.082q.005-6.681.012-13.361c0-.274.012-.549.018-.823l1.025-.2h1.864c.153.164.356.1.537.1q10.751.005,21.5,0c.182,0,.383.066.538-.1h.62c.191.182.428.1.643.1,6.78.005,13.559.03,20.339-.016a3.672,3.672,0,0,1,3.419,2.346,1.8,1.8,0,0,1,.248.781v73.39a3.706,3.706,0,0,0-.415,1.139l-1.139,1.241c-.153,0-.328-.03-.447.078a2.16,2.16,0,0,1-1.57.337c-14.844.237-29.688.037-44.53.1a8.5,8.5,0,0,1-2.641-.2c-.005-.569-.011-1.135-.011-1.7q.005-6.232.014-12.462c3.344-.018,6.691-.059,10.035-.041a4.918,4.918,0,0,0,3.019-.916,3.532,3.532,0,0,0,1.021-4.262,3.22,3.22,0,0,0-1.462-1.552,6.708,6.708,0,0,0-2.948-.6c-3.223.021-6.449.009-9.675.011q.008-3.42.009-6.839c0-.087,0-.173.1-.219a14.827,14.827,0,0,0,1.907-.05c2.9-.007,5.8.086,8.695-.046a3.915,3.915,0,0,0,2.879-1.4,3.474,3.474,0,0,0-.916-5.246,6.355,6.355,0,0,0-3.246-.683c-3.141-.025-6.283-.007-9.424-.005q-.005-3.139-.014-6.274c0-.223-.005-.446-.012-.668a.928.928,0,0,0,.05-.093.1.1,0,0,0,.082-.023c2.861.005,5.723.032,8.584,0A9.537,9.537,0,0,0,48.336,44a3.558,3.558,0,0,0,2.417-2.034,3.381,3.381,0,0,0-.148-3.144,3.925,3.925,0,0,0-3.59-1.936c-2.841.014-5.68-.021-8.522.025-.62.011-1.241-.009-1.861-.014m29.2.025v.005c-1.175,0-2.347-.025-3.518.005a3.838,3.838,0,0,0-3.88,3.046A4.321,4.321,0,0,0,59.7,43.336a4.911,4.911,0,0,0,2.775.932q2.818-.029,5.641,0a6.141,6.141,0,0,0,2.365-.39A3.5,3.5,0,0,0,72.692,39.7a3.777,3.777,0,0,0-3.652-2.772c-1.068-.046-2.139-.009-3.208-.009m-.4-7.147c1.3,0,2.355.018,3.406-.005a4.28,4.28,0,0,0,2.634-.863,3.591,3.591,0,0,0-2.337-6.37,54.459,54.459,0,0,0-6.1-.037,9.044,9.044,0,0,0-1.749.134,3.774,3.774,0,0,0-2.1,1.221,3.172,3.172,0,0,0-.807,1.773c-.034,1.9.754,3.631,3.171,4.044a31.589,31.589,0,0,0,3.886.1M65.307,58.7H68.4a5.649,5.649,0,0,0,2.5-.549,3.549,3.549,0,0,0,.9-5.615,4.481,4.481,0,0,0-3.2-1.223c-1.932-.036-3.868,0-5.8-.014a5.53,5.53,0,0,0-1.577.232,3.564,3.564,0,0,0,.248,7.012,21.926,21.926,0,0,0,3.834.157m-.3,14.409c1.3,0,2.232-.039,3.16.012a5.757,5.757,0,0,0,1.87-.194,3.4,3.4,0,0,0,2.706-2.809,3.451,3.451,0,0,0-1.588-3.663,4.929,4.929,0,0,0-2.716-.647c-1.916-.039-3.832-.009-5.748-.014a5.622,5.622,0,0,0-1.629.239,3.539,3.539,0,0,0,.185,6.9,19.588,19.588,0,0,0,3.761.171" transform="translate(28.625 6.286)" fill="#ebeef1"/>
        <path id="Path_839174" data-name="Path 839174" d="M15.622,33,11.89,28.79c-.319-.36-.665-.7-.954-1.084a3.665,3.665,0,0,1,1.353-5.522,3.4,3.4,0,0,1,3.49.291,22.022,22.022,0,0,1,3.31,3.4q2.462,2.789,4.905,5.593c.519.594,1.023,1.2,1.549,1.818l2.836-3.711c.037-.032.073-.066.111-.1q3.567-4.58,7.133-9.162a4.936,4.936,0,0,1,2.456-1.982,3.722,3.722,0,0,1,2.431.209c.078.084.182.068.282.071a3.51,3.51,0,0,1,1.453,1.483,3.937,3.937,0,0,1,.414,2.31,5.054,5.054,0,0,1-1.34,2.5c-1.317,1.643-2.56,3.346-3.85,5.012q-2.3,2.962-4.62,5.907c-.627.8-1.264,1.593-1.891,2.394-.494.631-.488.633.029,1.221L41.107,50.934a7.012,7.012,0,0,1,1.483,2.321A3.613,3.613,0,0,1,40.314,57.7a3.748,3.748,0,0,1-3.977-1.123q-3.494-4.021-7.046-8c-1.069-1.2-2.073-2.445-3.1-3.674-.209-.25-.348-.283-.54.005-1.014,1.522-2.2,2.914-3.312,4.362-1.816,2.365-3.693,4.686-5.486,7.067-1.7,2.251-5.306,1.927-6.335-.522a3.607,3.607,0,0,1,.078-3.176,20.221,20.221,0,0,1,2.346-3.2c.036-.048.07-.1.1-.144.841-1.221,1.814-2.34,2.722-3.51,1.631-2.107,3.28-4.2,4.914-6.3.109-.141.3-.251.246-.481-.032-.037-.062-.077-.093-.114l-.007-.009c-.032-.032-.062-.066-.093-.1-1.686-1.863-3.374-3.727-4.994-5.652L15.622,33" transform="translate(7.969 14.245)" fill="#f9f9f9"/>
        <path id="Path_839175" data-name="Path 839175" d="M36.623,24.229c.62.005,1.241.025,1.861.014,2.839-.046,5.679-.011,8.518-.023a3.919,3.919,0,0,1,3.592,1.936,3.372,3.372,0,0,1,.148,3.142,3.565,3.565,0,0,1-2.417,2.035,9.64,9.64,0,0,1-3.021.255c-2.863.027-5.725,0-8.588-.005-.217-2.449-.053-4.9-.093-7.354" transform="translate(28.636 18.949)" fill="#388e3c"/>
        <path id="Path_839176" data-name="Path 839176" d="M36.607,40.446c3.224,0,6.45.011,9.675-.011a6.713,6.713,0,0,1,2.948.6,3.236,3.236,0,0,1,1.462,1.552,3.53,3.53,0,0,1-1.023,4.262,4.915,4.915,0,0,1-3.019.916c-3.344-.018-6.689.023-10.033.041q-.005-3.682-.009-7.361" transform="translate(28.641 31.637)" fill="#388e3c"/>
        <path id="Path_839177" data-name="Path 839177" d="M36.635,16.174c1.169-.016,2.34-.043,3.51-.046,2.157-.005,4.315-.023,6.47.02a4.637,4.637,0,0,1,3.415,1.2,3.509,3.509,0,0,1-1.344,5.787,5.57,5.57,0,0,1-1.823.314q-5.074-.019-10.145-.02a12.091,12.091,0,0,1-.1-2.563c-.009-1.563.009-3.128.016-4.691" transform="translate(28.636 12.612)" fill="#388e3c"/>
        <path id="Path_839178" data-name="Path 839178" d="M36.615,32.313c3.141,0,6.281-.02,9.422.005A6.37,6.37,0,0,1,49.283,33a3.474,3.474,0,0,1,.916,5.246,3.911,3.911,0,0,1-2.877,1.4c-2.9.134-5.8.039-8.7.048a15.135,15.135,0,0,1-1.907.048c.194-.365-.127-.67-.119-1.03q.056-2.481.005-4.964c-.011-.481.027-.959.011-1.438" transform="translate(28.635 25.276)" fill="#388e3c"/>
        <path id="Path_839179" data-name="Path 839179" d="M27.481,18.472c-.1,0-.2.012-.282-.071.094.02.221-.086.282.071" transform="translate(21.28 14.384)" fill="#ebeef1"/>
        <path id="Path_839180" data-name="Path 839180" d="M36.676,20.233c-.02.1-.041.2-.061.3-.091-.121-.1-.226.061-.3" transform="translate(28.597 15.831)" fill="#388e3c"/>
        <path id="Path_839181" data-name="Path 839181" d="M13.236,26.506l.116.134-.116-.134" transform="translate(10.356 20.739)" fill="#f7f6f7"/>
        <path id="Path_839182" data-name="Path 839182" d="M16.159,29.812l.093.114-.093-.114" transform="translate(12.643 23.325)" fill="#f7f6f7"/>
        <path id="Path_839183" data-name="Path 839183" d="M11.835,35.652l-.1.144.1-.144" transform="translate(9.179 27.895)" fill="#f7f6f7"/>
        <path id="Path_839184" data-name="Path 839184" d="M16.1,29.752l.091.1-.091-.1" transform="translate(12.6 23.278)" fill="#f7f6f7"/>
        <path id="Path_839185" data-name="Path 839185" d="M20.5,24.528c-.037.032-.073.066-.111.1.037-.032.073-.066.111-.1" transform="translate(15.955 19.191)" fill="#f7f6f7"/>
        <path id="Path_839186" data-name="Path 839186" d="M36.61,16.107a.079.079,0,0,1,.045.082l-.071-.043.027-.039" transform="translate(28.622 12.603)" fill="#388e3c"/>
        <path id="Path_839187" data-name="Path 839187" d="M36.65,28.364c-.016.03-.032.062-.05.093-.043-.062-.009-.084.05-.093" transform="translate(28.621 22.193)" fill="#388e3c"/>
        <path id="Path_839188" data-name="Path 839188" d="M56.256,24.245c1.069,0,2.141-.037,3.208.009a3.777,3.777,0,0,1,3.652,2.772,3.5,3.5,0,0,1-2.2,4.182,6.12,6.12,0,0,1-2.367.389q-2.821-.032-5.641,0a4.9,4.9,0,0,1-2.775-.932,4.313,4.313,0,0,1-1.269-3.36,3.835,3.835,0,0,1,3.878-3.046c1.171-.03,2.346-.007,3.518-.007v0" transform="translate(38.201 18.959)" fill="#388e3c"/>
        <path id="Path_839189" data-name="Path 839189" d="M55.867,23.453a31.563,31.563,0,0,1-3.884-.1c-2.419-.414-3.2-2.148-3.171-4.044a3.16,3.16,0,0,1,.807-1.773,3.769,3.769,0,0,1,2.1-1.221,9.034,9.034,0,0,1,1.749-.134,54.068,54.068,0,0,1,6.1.037,3.591,3.591,0,0,1,2.335,6.37,4.28,4.28,0,0,1-2.634.863c-1.052.021-2.105.005-3.408.005" transform="translate(38.19 12.604)" fill="#388e3c"/>
        <path id="Path_839190" data-name="Path 839190" d="M55.725,39.708a21.9,21.9,0,0,1-3.832-.157,3.565,3.565,0,0,1-.25-7.014,5.6,5.6,0,0,1,1.579-.23c1.932.012,3.866-.021,5.8.014a4.486,4.486,0,0,1,3.2,1.223,3.55,3.55,0,0,1-.9,5.615,5.649,5.649,0,0,1-2.5.549H55.725" transform="translate(38.205 25.276)" fill="#388e3c"/>
        <path id="Path_839191" data-name="Path 839191" d="M55.439,47.756a19.587,19.587,0,0,1-3.761-.171,3.539,3.539,0,0,1-.185-6.9,5.622,5.622,0,0,1,1.629-.239c1.916.005,3.832-.025,5.748.014a4.929,4.929,0,0,1,2.716.647,3.451,3.451,0,0,1,1.588,3.663,3.4,3.4,0,0,1-2.706,2.809,5.757,5.757,0,0,1-1.87.194c-.929-.052-1.864-.012-3.16-.012" transform="translate(38.196 31.636)" fill="#388e3c"/>
      </g>
    </g>
  </g>
</svg>
