<svg xmlns="http://www.w3.org/2000/svg" xmlns:xlink="http://www.w3.org/1999/xlink" width="112" height="111" viewBox="0 0 112 111">
  <defs>
    <clipPath id="clip-path">
      <rect id="Rectangle_377712" data-name="Rectangle 377712" width="112" height="111" transform="translate(-0.2 -12.543)" fill="none"/>
    </clipPath>
    <clipPath id="clip-path-2">
      <rect id="Rectangle_377809" data-name="Rectangle 377809" width="99.782" height="106.572" fill="#0a5e6b"/>
    </clipPath>
  </defs>
  <g id="Group_1072248" data-name="Group 1072248" transform="translate(0.2 12.543)">
    <g id="Mask_Group_84" data-name="Mask Group 84" clip-path="url(#clip-path)">
      <g id="Group_1072352" data-name="Group 1072352" transform="translate(5.017 -10.251)">
        <g id="Group_1072351" data-name="Group 1072351" transform="translate(0.783 -0.292)" clip-path="url(#clip-path-2)">
          <path id="Path_838917" data-name="Path 838917" d="M.06,15.886a7.3,7.3,0,0,1,.37-2.66,6.017,6.017,0,0,1,2.175-3.067A5.719,5.719,0,0,1,5.2,8.96a9.242,9.242,0,0,1,1.7-.128q7.228-.016,14.459-.012c.064,0,.128,0,.19,0,.33-.016.747.081.966-.084.2-.153.02-.6.067-.9.141-.912.544-1.722,1.769-1.711,2.815.027,5.631,0,8.447.016a.591.591,0,0,0,.652-.385A8.269,8.269,0,0,1,35.2,3.043,9.314,9.314,0,0,1,40.029.3,8.486,8.486,0,0,1,43.188.072,10.542,10.542,0,0,1,47.57,1.714a9.933,9.933,0,0,1,3.261,3.9.823.823,0,0,0,.877.524c2.753-.024,5.5-.012,8.257-.012,1.19,0,1.748.568,1.742,1.774,0,.917,0,.913.907.913l14.794.007a6.673,6.673,0,0,1,4.66,1.639,6.26,6.26,0,0,1,1.99,3.525c.451,2.231.186,4.477.258,6.714.033.985.027,1.973,0,2.959a7.139,7.139,0,0,0-.064,1.439c.176.071.2-.073.253-.157.6-1.057,1.215-2.111,1.805-3.177a6.5,6.5,0,0,1,4.817-3.711,6.183,6.183,0,0,1,3.763.624,17.027,17.027,0,0,1,2.1,1.2A6.125,6.125,0,0,1,99.71,24.2a6.83,6.83,0,0,1-1.1,4.513c-2.065,3.571-4.15,7.128-6.223,10.694q-3.125,5.375-6.239,10.757c-.594,1.021-1.2,2.03-1.785,3.059a1.992,1.992,0,0,0-.1,1.343,4.054,4.054,0,0,1,.063.655q0,22.1-.005,44.2a7.191,7.191,0,0,1-1.25,4.4,6.207,6.207,0,0,1-4.727,2.646c-2.586.188-5.174.08-7.761.081q-31.786.02-63.57.009a6.854,6.854,0,0,1-3.433-.739,6.369,6.369,0,0,1-3.338-4.541,12.422,12.422,0,0,1-.164-2.38q0-41.022,0-82.043c0-.3-.007-.6-.009-.905l.023-.029Zm71.854-3.7a1.3,1.3,0,0,0-.142-.019c-3.227-.005-6.453-.005-9.68-.021-.339,0-.354.192-.355.422-.007.795,0,1.591-.011,2.385,0,.23.059.346.321.345q4.936-.018,9.872-.021,1.907.008,3.815.017A1.879,1.879,0,0,1,77.84,17.4q0,8.873,0,17.747v1.045a1.066,1.066,0,0,0,.439-.511,26.849,26.849,0,0,1,1.569-2.777,5.919,5.919,0,0,0,1.077-3.772c-.079-4.626-.008-9.255-.041-13.882a2.908,2.908,0,0,0-2.63-3.052c-2.106-.125-4.225-.02-6.339-.013m.005,90.919q3.221.012,6.441.021a2.8,2.8,0,0,0,2.25-1.631,6.6,6.6,0,0,0,.292-2.232q-.008-19.446,0-38.893v-.929c-.186.049-.206.173-.258.264-.848,1.474-1.684,2.954-2.542,4.421a1.765,1.765,0,0,0-.262.94q.01,10.165.005,20.33,0,6.252,0,12.5c0,1.456-.736,2.2-2.134,2.166-1.113-.029-2.227-.009-3.341,0-.148,0-.321-.071-.443.085-.383-.272-.8-.087-1.206-.087H8.529c-.1,0-.192,0-.286,0A1.718,1.718,0,0,1,6.563,98.4c-.037-.7-.047-1.406-.048-2.111-.04-25.608.134-51.217-.068-76.825-.007-.837.084-1.675.11-2.512a1.815,1.815,0,0,1,.568-1.243A2,2,0,0,1,8.682,15.3q6.729-.006,13.459.007c.406,0,.523-.126.5-.518-.037-.713-.06-1.431-.036-2.146.013-.418-.144-.494-.523-.49-1.814.02-3.627.009-5.442.009-3.34,0-6.681-.005-10.022,0a2.911,2.911,0,0,0-3.1,2.373,6.761,6.761,0,0,0-.1,1.423q-.006,36.154,0,72.307c0,4.056-.044,8.112.035,12.168A2.975,2.975,0,0,0,6.3,103.154q32.215-.056,64.428-.027c.4,0,.795-.015,1.193-.021M61.831,18.58c-.065-.017-.1.009-.1.076-.008.333.009.67-.031,1a1.586,1.586,0,0,1-.9,1.506,2.932,2.932,0,0,1-1.211.242q-17.555,0-35.111-.005a1.737,1.737,0,0,1-1.608-.954,2.758,2.758,0,0,1-.292-1.5c.009-.284-.083-.391-.385-.375-.587.033-1.177.028-1.765.029q-5.221.01-10.445.015c-.068-.049-.084-.021-.069.048-.011,1-.029,2-.029,3.006q0,36.989,0,73.977c0,.349-.12.8.051,1.021.213.276.686.069,1.042.069q30.09.012,60.181.007c.827,0,1.652-.023,2.479-.036.1.129.193.125.288,0,.358.108.481.013.481-.4q-.018-13.1-.008-26.2V68.725c-.764.6-1.593.831-2.312,1.328a39.476,39.476,0,0,1-3.469,2.014,19.968,19.968,0,0,1-2.875,1.565,1.312,1.312,0,0,1-1.318-.181,1.926,1.926,0,0,1-.785-1.664q.014-4.986.016-9.972a3.264,3.264,0,0,1,.414-1.668c.285-.494.611-.964.9-1.456,1.382-2.392,2.75-4.791,4.136-7.18q2.418-4.165,4.861-8.313a2.915,2.915,0,0,0,.446-1.659c-.041-1.048-.011-2.1-.011-3.149q0-9.686,0-19.373c0-.25.031-.423-.355-.422-4.072.011-8.143-.007-12.213-.016m-31.392-9.2h0c-1.351,0-2.7.013-4.055-.008-.379-.005-.481.108-.478.485.019,2.243.008,4.486.015,6.729,0,.442-.185,1.012.072,1.293.288.314.872.084,1.323.087,10.173.06,20.346-.1,30.518.1.419.008.562-.076.555-.539q-.054-3.842-.025-7.682c0-.406-.122-.471-.477-.47q-3.842.014-7.682,0A1.857,1.857,0,0,1,48.153,7.8,5.784,5.784,0,0,0,43.7,3.585a6.163,6.163,0,0,0-3.542.128,6.377,6.377,0,0,0-2.376,1.4A5.957,5.957,0,0,0,36.13,8.031a1.888,1.888,0,0,1-1.78,1.356c-1.3-.047-2.608-.012-3.912-.012M91.985,21.3a2.642,2.642,0,0,0-2.365,1.41q-4.974,8.556-9.932,17.118c-2.781,4.829-5.613,9.629-8.361,14.479-1.045,1.845-2.128,3.671-3.212,5.5-.169.284-.5.556-.455.864.057.359.536.389.811.594.025.019.053.033.08.052.735.532.8.522,1.25-.229.017-.027.027-.057.043-.085q2.572-4.445,5.142-8.888,3.057-5.277,6.118-10.552,3.3-5.7,6.606-11.408,2.41-4.161,4.823-8.321c.2-.339.12-.5-.261-.53-.1-.007-.192,0-.286,0m4.459,3.6a2.4,2.4,0,0,0-.563-1.612c-.178-.228-.266-.21-.4.025q-1.158,2.023-2.329,4.039Q90.288,32.3,87.422,37.24q-2.674,4.616-5.345,9.234c-1.467,2.542-2.919,5.093-4.391,7.633q-2.59,4.471-5.2,8.924c-.15.258-.132.449.124.6.354.212.716.407,1.066.624.321.2.5.1.671-.217.631-1.138,1.285-2.264,1.937-3.39q3.031-5.235,6.067-10.467,4.135-7.14,8.268-14.283,2.6-4.493,5.2-8.987a3.572,3.572,0,0,0,.631-2.011M66.955,66.678h0c0,.684,0,1.368,0,2.051,0,.51.064.536.514.276C68.7,68.3,69.9,67.546,71.165,66.92c.23-.113.256-.209.016-.345q-1.945-1.112-3.884-2.232c-.3-.176-.346-.035-.343.236.008.7,0,1.4,0,2.1" transform="translate(0.013 0)" fill="#0a5e6b"/>
          <path id="Path_838918" data-name="Path 838918" d="M.073,11.934l.023.029-.023.029C.036,12-.008,12.01,0,11.949c0-.008.047-.011.072-.015" transform="translate(0 3.951)" fill="#0a5e6b"/>
          <path id="Path_838920" data-name="Path 838920" d="M55.331,72.678c.095-.161.189-.16.288,0-.1.126-.192.13-.288,0" transform="translate(18.322 24.026)" fill="#0a5e6b"/>
          <path id="Path_838921" data-name="Path 838921" d="M46.483,13.959l-.1.076c0-.067.032-.093.1-.076" transform="translate(15.36 4.62)" fill="#0a5e6b"/>
          <path id="Path_838922" data-name="Path 838922" d="M7.528,13.989a.053.053,0,0,1-.069.048c-.016-.069,0-.1.069-.048" transform="translate(2.468 4.624)" fill="#0a5e6b"/>
          <path id="Path_838923" data-name="Path 838923" d="M20.97,38.016c-1.319,0-2.642-.055-3.957.017a4.02,4.02,0,0,1-2.939-1.222,3.992,3.992,0,0,1-1.336-3.229q.014-3.648.031-7.295a4.829,4.829,0,0,1,.455-2.554,3.976,3.976,0,0,1,2.992-2.22,69.242,69.242,0,0,1,7.884-.154,8.313,8.313,0,0,1,2.411.236,3.991,3.991,0,0,1,2.167,1.676,7.8,7.8,0,0,1,.449.771c.146.29.3.347.531.087a30.182,30.182,0,0,1,2.588-2.433,1.6,1.6,0,0,1,1.348-.16,1.546,1.546,0,0,1,.712,2.677c-1.482,1.406-3,2.77-4.521,4.139a.933.933,0,0,0-.327.787q.032,2.36-.009,4.722a4.349,4.349,0,0,1-3.567,4.137,8.944,8.944,0,0,1-1.524.021q-1.693,0-3.386,0M17.018,24.7c-.031-.036-.053-.031-.067.013a.969.969,0,0,0-.889,1.1q-.006,3.912-.007,7.822a1.037,1.037,0,0,0,1.114,1.137c1.239.008,2.48,0,3.719,0,1.383,0,2.767.005,4.15,0a1.036,1.036,0,0,0,1.145-.964c.027-.571.009-1.143.008-1.716,0-.091.021-.2-.093-.245s-.173.04-.244.1c-.341.31-.676.627-1.028.925a1.513,1.513,0,0,1-2.423-.005,36.623,36.623,0,0,1-2.658-2.644,8.865,8.865,0,0,1-1.5-1.713A1.633,1.633,0,0,1,18.9,26.36a1.6,1.6,0,0,1,2.055.383q1.238,1.188,2.435,2.421c.253.261.417.234.655,0a7.491,7.491,0,0,1,1.169-1.049,2.061,2.061,0,0,0,.982-2.3.761.761,0,0,1,0-.1.943.943,0,0,0-.889-.988c-.138-.116-.3-.068-.457-.068-1.266,0-2.532-.008-3.8,0a4.756,4.756,0,0,0-1.222.047H19.59c-.051-.065-.1-.064-.152,0H19.2a1.782,1.782,0,0,0-.9,0L17.018,24.7" transform="translate(4.218 7.06)" fill="#0a5e6b"/>
          <path id="Path_838924" data-name="Path 838924" d="M12.76,60.059a4.419,4.419,0,0,1,.318-2.019,4.354,4.354,0,0,1,3.112-2.565,6.123,6.123,0,0,1,1.311-.1c2.2,0,4.391.019,6.586-.011.729-.009,1.446.149,2.172.108.249-.015.374.21.575.3a4.247,4.247,0,0,1,2.222,2.2c.132.278.228.5.6.121.837-.837,1.749-1.6,2.645-2.379a2.27,2.27,0,0,1,1.966.114,1.75,1.75,0,0,1,.306,2.075A7.033,7.033,0,0,1,33.16,59.3c-1.129,1.061-2.294,2.085-3.453,3.112a.883.883,0,0,0-.281.756c.037,1.527.073,3.052.019,4.58A4.215,4.215,0,0,1,27,71.643a4.026,4.026,0,0,1-1.8.421c-2.831.023-5.664.075-8.494,0a4.1,4.1,0,0,1-3.277-2,4.486,4.486,0,0,1-.663-2.662c-.015-2.226-.012-4.453-.015-6.68a.74.74,0,0,0,0-.663m3.3-.39c0,2.64.005,5.278,0,7.918,0,.662.084.856.784,1.166a.129.129,0,0,0,.206.025l8.092-.015c.039.077.071.052.1-.008a1.011,1.011,0,0,0,.941-1.005c.017-.571.008-1.143.008-1.716,0-.089.035-.214-.091-.234-.056-.009-.134.065-.19.117-.347.325-.686.663-1.04.981a1.658,1.658,0,0,1-2.457-.011c-1.323-1.307-2.65-2.61-3.914-3.973-.916-.988-.491-1.926.449-2.521a1.721,1.721,0,0,1,2.078.4c.772.8,1.572,1.573,2.343,2.375.261.272.457.254.712,0a8.618,8.618,0,0,1,1.2-1.085,2.024,2.024,0,0,0,.91-2.192.273.273,0,0,1,0-.047.99.99,0,0,0-1.09-1.094c-2.749-.035-5.5,0-8.246,0-.061-.039-.092-.012-.106.049a.94.94,0,0,0-.676.691c-.08.056-.089.113-.007.176" transform="translate(4.224 18.334)" fill="#0a5e6b"/>
          <path id="Path_838925" data-name="Path 838925" d="M34.8,40.18a2.374,2.374,0,0,1-1.086,1.7c-.938.795-1.844,1.627-2.774,2.429-.264.228-.524.458-.785.688a1.785,1.785,0,0,0-.72,1.6,41.52,41.52,0,0,1,.019,4.289,4.274,4.274,0,0,1-3.659,4.137,7.742,7.742,0,0,1-1.47.108c-2.511-.033-5.025.033-7.534-.049a4.24,4.24,0,0,1-3.124-1.7,4.82,4.82,0,0,1-.9-1.922,4.736,4.736,0,0,1,.009-1.155c.008-2.512.04-5.025.009-7.536a4.1,4.1,0,0,1,2.495-3.971,3.348,3.348,0,0,1,1.408-.386c2.766-.073,5.534-.084,8.3,0a4.194,4.194,0,0,1,4,2.415c.257.538.294.526.741.122.664-.6,1.307-1.215,1.986-1.794a1.887,1.887,0,0,1,1.947-.57,1.615,1.615,0,0,1,1.138,1.6m-18.72,2.337c-.1.079-.116.162-.011.25q0,3.736.009,7.473l-.036.015.036.059c.024,1.012.3,1.418,1.058,1.423,2.64.019,5.278.016,7.918.005a1.041,1.041,0,0,0,1.1-.914,10.78,10.78,0,0,0,.031-1.76c-.011-.264-.2-.172-.323-.064-.277.24-.556.475-.812.736A1.84,1.84,0,0,1,22.2,49.7c-1.108-1.139-2.246-2.25-3.378-3.365a4.109,4.109,0,0,1-.691-.96,1.069,1.069,0,0,1-.017-1.064,1.68,1.68,0,0,1,1.805-1.088,2.078,2.078,0,0,1,1.278.74c.759.747,1.515,1.5,2.255,2.262.225.233.363.2.578-.009a9.163,9.163,0,0,1,1.262-1.158,2.038,2.038,0,0,0,.905-2.119c-.081-.719-.245-.993-.966-1.221-.011-.063-.036-.075-.08-.024l-7.928-.025-.087.007a1.262,1.262,0,0,0-1.058.839" transform="translate(4.214 12.698)" fill="#0a5e6b"/>
          <path id="Path_838926" data-name="Path 838926" d="M42.414,57.671h9.112a2.445,2.445,0,0,1,1.185.261,1.6,1.6,0,0,1,.861,1.782,1.91,1.91,0,0,1-1.446,1.3,5.058,5.058,0,0,1-1.024.1q-8.682-.01-17.365-.005a3.1,3.1,0,0,1-1.709-.378,1.628,1.628,0,0,1-.785-1.609,1.483,1.483,0,0,1,1.147-1.275,3.775,3.775,0,0,1,1.293-.173h8.731" transform="translate(10.341 19.096)" fill="#0a5e6b"/>
          <path id="Path_838927" data-name="Path 838927" d="M42.22,26.986q-4.461,0-8.923,0a3.536,3.536,0,0,1-.807-.048,1.716,1.716,0,0,1-.962-2.657A1.553,1.553,0,0,1,32.79,23.7c6.23-.157,12.461-.047,18.692-.071a2.59,2.59,0,0,1,1.315.307,1.673,1.673,0,0,1,.783,1.8,1.717,1.717,0,0,1-1.486,1.211,7.821,7.821,0,0,1-.952.053q-4.461.006-8.923,0Z" transform="translate(10.339 7.821)" fill="#0a5e6b"/>
          <path id="Path_838928" data-name="Path 838928" d="M42.776,38.981c3.213,0,6.123.009,9.033-.007a1.629,1.629,0,1,1,.343,3.24c-1.494-.029-2.988,0-4.483,0-4.358,0-8.715-.005-13.073.005a8.07,8.07,0,0,1-2.058-.021,1.711,1.711,0,0,1-1.229-1.187,1.317,1.317,0,0,1,.326-1.472,1.733,1.733,0,0,1,1.289-.507c3.385-.1,6.77-.008,9.852-.051" transform="translate(10.336 12.905)" fill="#0a5e6b"/>
          <path id="Path_838929" data-name="Path 838929" d="M37.683,63.123c1.511,0,3.022-.025,4.533.008a1.7,1.7,0,0,1,1.72,2.295,1.57,1.57,0,0,1-1.6,1.05c-1.462.028-2.925.009-4.387.012-1.427,0-2.855-.019-4.281.069a3.206,3.206,0,0,1-1.407-.276,1.6,1.6,0,0,1,.252-3.071,6.747,6.747,0,0,1,1.692-.083c1.161-.017,2.322-.005,3.482-.005" transform="translate(10.342 20.899)" fill="#0a5e6b"/>
          <path id="Path_838930" data-name="Path 838930" d="M37.623,32.4c-1.62,0-3.24,0-4.86,0a1.507,1.507,0,0,1-1.422-1.081,1.573,1.573,0,0,1,.2-1.595,1.546,1.546,0,0,1,1.169-.564c3.139-.152,6.282-.092,9.422-.063a1.749,1.749,0,0,1,1.908,1.9,1.471,1.471,0,0,1-1.466,1.4c-1.652.013-3.3,0-4.956,0" transform="translate(10.334 9.623)" fill="#0a5e6b"/>
          <path id="Path_838931" data-name="Path 838931" d="M37.74,44.476c1.655,0,3.308,0,4.962,0a1.413,1.413,0,0,1,1.356,1.313,1.692,1.692,0,0,1-1.9,1.919c-2.8-.016-5.6-.021-8.4,0a2.336,2.336,0,0,1-2.067-.634,1.428,1.428,0,0,1-.446-1.438,1.672,1.672,0,0,1,1.438-1.159c1.687-.005,3.372,0,5.058,0" transform="translate(10.325 14.727)" fill="#0a5e6b"/>
          <path id="Path_838932" data-name="Path 838932" d="M12.794,58.893a.737.737,0,0,1,0,.662.451.451,0,0,1,0-.662" transform="translate(4.188 19.501)" fill="#0a5e6b"/>
          <path id="Path_838933" data-name="Path 838933" d="M32.263,4.605a1.979,1.979,0,0,1,2.025,2.053A2.168,2.168,0,0,1,32.24,8.71,2.268,2.268,0,0,1,30.1,6.623a2.056,2.056,0,0,1,2.166-2.018" transform="translate(9.966 1.524)" fill="#0a5e6b"/>
          <path id="Path_838934" data-name="Path 838934" d="M23.54,23.9c-1.826.016-3.653.057-5.478-.019a4.769,4.769,0,0,1,1.223-.047c1.266-.011,2.532-.007,3.8,0,.153,0,.318-.048.457.068" transform="translate(5.981 7.888)" fill="#0a5e6b"/>
          <path id="Path_838935" data-name="Path 838935" d="M17.818,23.885a2.21,2.21,0,0,1-.9,0,1.767,1.767,0,0,1,.9,0" transform="translate(5.602 7.889)" fill="#0a5e6b"/>
          <path id="Path_838936" data-name="Path 838936" d="M17.923,23.882h-.152q.076-.1.152,0" transform="translate(5.885 7.892)" fill="#0a5e6b"/>
          <path id="Path_838937" data-name="Path 838937" d="M15.97,23.867l-.028.031L15.9,23.88c.013-.044.036-.049.067-.013" transform="translate(5.266 7.895)" fill="#0a5e6b"/>
          <path id="Path_838938" data-name="Path 838938" d="M15.257,58.468a.148.148,0,0,1-.007.176c-.083-.063-.073-.12.007-.176" transform="translate(5.031 19.361)" fill="#0a5e6b"/>
          <path id="Path_838939" data-name="Path 838939" d="M15.823,65.431a.15.15,0,0,1,.206.024.129.129,0,0,1-.206-.024" transform="translate(5.24 21.657)" fill="#0a5e6b"/>
          <path id="Path_838940" data-name="Path 838940" d="M15.854,57.915c-.015.061-.055.068-.106.049.015-.061.045-.088.106-.049" transform="translate(5.215 19.172)" fill="#0a5e6b"/>
          <path id="Path_838941" data-name="Path 838941" d="M22.057,65.433l.1-.008c-.028.061-.059.085-.1.008" transform="translate(7.304 21.664)" fill="#0a5e6b"/>
          <path id="Path_838942" data-name="Path 838942" d="M15.264,41.48a.214.214,0,0,1-.011.25c-.105-.088-.093-.172.011-.25" transform="translate(5.027 13.735)" fill="#0a5e6b"/>
          <path id="Path_838943" data-name="Path 838943" d="M15.251,47.282l.025.036-.027.037-.036-.059.037-.015" transform="translate(5.038 15.657)" fill="#0a5e6b"/>
          <path id="Path_838944" data-name="Path 838944" d="M22.139,40.9c-.041.04-.073.049-.08-.024.044-.049.069-.039.08.024" transform="translate(7.305 13.524)" fill="#0a5e6b"/>
          <path id="Path_838945" data-name="Path 838945" d="M16.125,40.845c-.013.021-.027.043-.041.063l-.045-.055.087-.008" transform="translate(5.311 13.525)" fill="#0a5e6b"/>
        </g>
      </g>
    </g>
  </g>
</svg>
